name analog
datacolumns 19
datarows 27
range 0.0 0.013000000000000001
endheader
time	ground_force_vx	ground_force_vy	ground_force_vz	ground_force_px	ground_force_py	ground_force_pz	l_ground_force_vx	l_ground_force_vy	l_ground_force_vz	l_ground_force_px	l_ground_force_py	l_ground_force_pz	ground_torque_x	ground_torque_y	ground_torque_z	l_ground_torque_x	l_ground_torque_y	l_ground_torque_z
0.0	-0.0	-0.0	-0.0	19.857629776000977	2.7655069828033447	-687.9848022460938	-20.906896591186523	-10.009071350097656	-81.58793640136719	-35.096614837646484	15.376442909240724	74.87704467773438	-0.0	-0.0	-0.0	36085.77734375	9450.5830078125	-10895.1923828125
0.0005	-0.0	-0.0	-0.0	20.16673469543457	2.4642229080200195	-686.4674682617188	-21.082077026367188	-9.772753715515137	-82.75790405273438	-34.917659759521484	16.133586883544922	76.507568359375	-0.0	-0.0	-0.0	35984.4453125	9481.89453125	-11003.5673828125
0.001	-0.0	-0.0	-0.0	20.067068099975582	2.524479389190674	-685.8859252929688	-20.906957626342773	-10.159331321716309	-82.3997802734375	-34.741676330566406	16.194534301757812	76.60910034179688	-0.0	-0.0	-0.0	36405.1640625	9666.01953125	-11121.4267578125
0.0015	-0.0	-0.0	-0.0	20.728416442871094	2.438070058822632	-686.3536376953125	-21.02691650390625	-10.063773155212402	-82.17346954345703	-34.73868179321289	15.793353080749512	75.66862487792969	-0.0	-0.0	-0.0	36308.8125	9582.328125	-11151.9619140625
0.002	-0.0	-0.0	-0.0	20.273815155029297	2.251269578933716	-684.1209716796875	-21.353158950805664	-10.27390193939209	-82.28677368164062	-35.03578186035156	16.470842361450195	75.5550537109375	-0.0	-0.0	-0.0	36411.75	9619.1630859375	-10992.630859375
0.0025	-0.0	-0.0	-0.0	20.90697860717773	2.3807733058929443	-684.6903686523438	-21.1678524017334	-10.24265480041504	-83.5811538696289	-34.40622329711914	16.07237434387207	75.46759033203125	-0.0	-0.0	-0.0	36756.5546875	9749.5009765625	-11212.3779296875
0.003	-0.0	-0.0	-0.0	20.610689163208008	2.320448637008667	-684.9175415039062	-21.084516525268555	-10.45323085784912	-84.03277587890625	-34.86347579956055	16.165674209594727	75.8056640625	-0.0	-0.0	-0.0	36793.86328125	9694.2802734375	-11152.16796875
0.0035	-0.0	-0.0	-0.0	20.840232849121094	2.164611577987671	-684.3491821289062	-21.37929916381836	-10.364983558654783	-84.0555191040039	-34.79586410522461	16.345651626586914	75.34227752685547	-0.0	-0.0	-0.0	36921.05859375	9816.8349609375	-11201.181640625
0.004	-0.0	-0.0	-0.0	21.2607421875	2.530834913253784	-685.9014892578125	-21.37929916381836	-10.573122024536133	-83.44723510742188	-35.06412506103516	16.06493377685547	75.58110046386719	-0.0	-0.0	-0.0	37198.453125	9777.3447265625	-11292.220703125
0.0045000000000000005	-0.0	-0.0	-0.0	21.16814613342285	2.763042449951172	-685.8887329101562	-21.43334579467773	-10.544793128967283	-84.14553833007812	-34.860206604003906	16.137014389038086	74.87938690185547	-0.0	-0.0	-0.0	37440.27734375	9614.779296875	-11310.3740234375
0.005	-0.0	-0.0	-0.0	21.742259979248047	2.673912048339844	-687.0618896484375	-21.52503776550293	-10.437726974487305	-85.74165344238281	-35.039161682128906	16.043317794799805	74.27497863769531	-0.0	-0.0	-0.0	37298.8828125	9786.6103515625	-11190.7080078125
0.0055	-0.0	-0.0	-0.0	21.439064025878903	2.4278693199157715	-685.4092407226562	-21.38258171081543	-10.71854305267334	-84.02054595947266	-35.07550811767578	16.19845199584961	76.32963562011719	-0.0	-0.0	-0.0	37537.28515625	9812.69921875	-11171.609375
0.006	-0.0	-0.0	-0.0	21.617467880249023	2.43865180015564	-684.5900268554688	-21.471338272094727	-10.71857452392578	-84.84384155273438	-34.673492431640625	16.321104049682617	75.79019165039062	-0.0	-0.0	-0.0	37580.27734375	9963.833984375	-11280.8115234375
0.006500000000000001	-0.0	-0.0	-0.0	21.34980010986328	2.106923341751098	-685.87548828125	-21.58514404296875	-10.566877365112305	-85.66755676269531	-34.62448501586914	16.190454483032227	75.58230590820312	-0.0	-0.0	-0.0	37530.2265625	9843.638671875	-11289.2197265625
0.007	-0.0	-0.0	-0.0	21.64584350585937	2.5356476306915283	-686.9349365234375	-21.7341423034668	-10.711647033691406	-85.63987731933594	-34.860374450683594	16.13735008239746	75.71049499511719	-0.0	-0.0	-0.0	37691.484375	9851.7236328125	-11260.849609375
0.0075	-0.0	-0.0	-0.0	21.71445655822754	2.3134548664093018	-686.3256225585938	-21.43964958190918	-10.662304878234863	-85.80826568603516	-34.76244354248047	16.16169548034668	76.28471374511719	-0.0	-0.0	-0.0	37731.14453125	9835.5869140625	-11341.3515625
0.008	-0.0	-0.0	-0.0	21.803855895996094	2.5483238697052	-685.7951049804688	-21.52465438842773	-10.542206764221191	-84.71763610839844	-34.893165588378906	16.043123245239258	75.4375991821289	-0.0	-0.0	-0.0	37678.8125	9846.873046875	-11159.6904296875
0.0085	-0.0	-0.0	-0.0	21.25628471374512	2.6131045818328857	-684.6871948242188	-21.46800994873047	-10.566601753234863	-84.24168395996094	-35.15718078613281	16.256013870239258	75.8056640625	-0.0	-0.0	-0.0	37277.98046875	9715.0419921875	-11232.2490234375
0.009000000000000001	-0.0	-0.0	-0.0	21.775821685791016	2.941303253173828	-685.15234375	-21.23014068603516	-10.450098991394045	-84.97051239013672	-35.067718505859375	16.2514705657959	76.98738098144531	-0.0	-0.0	-0.0	37478.76171875	9821.0908203125	-11082.44140625
0.0095	-0.0	-0.0	-0.0	21.982759475708008	2.5608556270599365	-684.1094970703125	-21.08493995666504	-10.301520347595217	-86.24044799804688	-35.30782699584961	16.27982521057129	76.04571533203125	-0.0	-0.0	-0.0	37381.51171875	9726.26953125	-11172.640625
0.01	-0.0	-0.0	-0.0	22.12420654296875	2.819495439529419	-686.487548828125	-21.47215461730957	-10.305572509765623	-84.60563659667969	-34.97349548339844	15.948224067687988	76.96926879882812	-0.0	-0.0	-0.0	37425.64453125	9617.2353515625	-11104.2001953125
0.0105	-0.0	-0.0	-0.0	22.067768096923828	2.9649500846862797	-683.66259765625	-21.322986602783203	-10.096705436706545	-84.97135162353516	-34.86547088623047	16.39794158935547	76.26724243164062	-0.0	-0.0	-0.0	37018.296875	9662.544921875	-11000.0029296875
0.011	-0.0	-0.0	-0.0	22.433917999267575	3.260406732559204	-684.4627685546875	-20.99632453918457	-10.370243072509766	-83.19181060791016	-34.902156829833984	15.91965675354004	75.56523132324219	-0.0	-0.0	-0.0	36876.015625	9637.5986328125	-10955.6337890625
0.0115	-0.0	-0.0	-0.0	22.335525512695312	3.27916955947876	-682.473876953125	-20.75389289855957	-9.831677436828612	-84.12810516357422	-34.7301025390625	16.474609375	75.82549285888672	-0.0	-0.0	-0.0	36745.6640625	9675.376953125	-10938.068359375
0.012	-0.0	-0.0	-0.0	22.264799118041992	3.3588621616363525	-683.6257934570312	-20.847034454345703	-9.627063751220703	-83.35469055175781	-34.85554122924805	15.79600429534912	76.37706756591797	-0.0	-0.0	-0.0	36494.2109375	9547.7529296875	-10843.126953125
0.0125	-0.0	-0.0	-0.0	22.40168190002441	3.340647459030152	-683.5338745117188	-20.459548950195312	-9.747884750366213	-83.07994079589844	-34.66611099243164	16.256269454956055	75.30350494384766	-0.0	-0.0	-0.0	36271.65625	9495.50390625	-10756.951171875
0.013000000000000001	-0.0	-0.0	-0.0	22.40982818603516	3.381925106048584	-683.4031982421875	-20.244613647460938	-9.627063751220703	-82.1422348022461	-34.61507797241211	16.04817008972168	75.47569274902344	-0.0	-0.0	-0.0	36000.296875	9565.2978515625	-10610.0634765625
